<svg id="visual" viewBox="0 0 900 450" width="900" height="450" xmlns="http://www.w3.org/2000/svg" xmlns:xlink="http://www.w3.org/1999/xlink" version="1.1"><rect x="0" y="0" width="900" height="450" fill="#001220"></rect><defs><linearGradient id="grad1_0" x1="50%" y1="100%" x2="100%" y2="0%"><stop offset="10%" stop-color="#001220" stop-opacity="1"></stop><stop offset="90%" stop-color="#001220" stop-opacity="1"></stop></linearGradient></defs><defs><linearGradient id="grad2_0" x1="0%" y1="100%" x2="50%" y2="0%"><stop offset="10%" stop-color="#001220" stop-opacity="1"></stop><stop offset="90%" stop-color="#001220" stop-opacity="1"></stop></linearGradient></defs><g transform="translate(900, 450)"><path d="M-214 0C-213.8 -28 -213.6 -55.9 -206 -85.3C-198.5 -114.8 -183.5 -145.6 -159.1 -159.1C-134.7 -172.6 -100.8 -168.6 -72.7 -175.5C-44.6 -182.5 -22.3 -200.2 0 -218L0 0Z" fill="#5ecdff"></path></g><g transform="translate(0, 0)"><path d="M222 0C206.1 23.2 190.2 46.4 182.9 75.8C175.7 105.2 177 140.7 159.1 159.1C141.2 177.5 104 178.6 74.2 179.2C44.5 179.8 22.3 179.9 0 180L0 0Z" fill="#5ecdff"></path></g></svg>